HIERARCHY
ROOT Hips
{
	OFFSET 49.844601 2.415166 84.225098
	CHANNELS 6 Xposition Yposition Zposition Xrotation Yrotation Zrotation
	JOINT spine
	{
		OFFSET 0.000000 -0.359108 6.244789
		CHANNELS 3 Xrotation Yrotation Zrotation
		JOINT spine1
		{
			OFFSET 0.000000 -0.000001 9.069412
			CHANNELS 3 Xrotation Yrotation Zrotation
			JOINT spine2
			{
				OFFSET 0.000000 -0.000001 8.690140
				CHANNELS 3 Xrotation Yrotation Zrotation
				JOINT Neck
				{
					OFFSET 0.000000 -1.063724 22.311195
					CHANNELS 3 Xrotation Yrotation Zrotation
					JOINT Head
					{
						OFFSET 0.000000 -0.000001 6.740814
						CHANNELS 3 Xrotation Yrotation Zrotation
						End Site
						{
							OFFSET 0.000000 5.380968 16.316498
						}
					}
				}
				JOINT RightShoulder
				{
					OFFSET -3.659161 0.509513 9.384682
					CHANNELS 3 Xrotation Yrotation Zrotation
					JOINT RightArm
					{
						OFFSET 0.000000 -0.000002 12.308899
						CHANNELS 3 Xrotation Yrotation Zrotation
						JOINT RightArmRoll
						{
							OFFSET 0.000000 -0.000001 6.213745
							CHANNELS 3 Xrotation Yrotation Zrotation
							JOINT RightForeArm
							{
								OFFSET 0.000000 -0.000003 18.098495
								CHANNELS 3 Xrotation Yrotation Zrotation
								JOINT RightForeArmRoll
								{
									OFFSET 0.000000 -0.000001 6.972794
									CHANNELS 3 Xrotation Yrotation Zrotation
									JOINT RightHand
									{
										OFFSET 0.000000 -0.000002 13.992905
										CHANNELS 3 Xrotation Yrotation Zrotation
										End Site
										{
											OFFSET 0.000000 0.000000 0.100006
										}
									}
								}
							}
						}
					}
				}
				JOINT LeftShoulder
				{
					OFFSET 3.659161 0.509513 9.384682
					CHANNELS 3 Xrotation Yrotation Zrotation
					JOINT LeftArm
					{
						OFFSET 0.000000 -0.000002 12.308899
						CHANNELS 3 Xrotation Yrotation Zrotation
						JOINT LeftArmRoll
						{
							OFFSET 0.000000 -0.000001 6.213745
							CHANNELS 3 Xrotation Yrotation Zrotation
							JOINT LeftForeArm
							{
								OFFSET 0.000000 -0.000003 18.098495
								CHANNELS 3 Xrotation Yrotation Zrotation
								JOINT LeftForeArmRoll
								{
									OFFSET 0.000000 -0.000001 6.972794
									CHANNELS 3 Xrotation Yrotation Zrotation
									JOINT LeftHand
									{
										OFFSET 0.000000 -0.000002 13.992905
										CHANNELS 3 Xrotation Yrotation Zrotation
										End Site
										{
											OFFSET 0.000000 0.000000 0.100006
										}
									}
								}
							}
						}
					}
				}
			}
		}
	}
	JOINT RightUpLeg
	{
		OFFSET -5.535149 0.851454 -1.014999
		CHANNELS 3 Xrotation Yrotation Zrotation
		JOINT RightUpLegRoll
		{
			OFFSET 0.000000 -0.000003 16.407501
			CHANNELS 3 Xrotation Yrotation Zrotation
			JOINT RightLeg
			{
				OFFSET 0.000000 0.000003 -20.318100
				CHANNELS 3 Xrotation Yrotation Zrotation
				JOINT RightLegRoll
				{
					OFFSET 0.000000 -0.000003 20.384598
					CHANNELS 3 Xrotation Yrotation Zrotation
					JOINT RightFoot
					{
						OFFSET 0.000000 -0.000003 16.966797
						CHANNELS 3 Xrotation Yrotation Zrotation
						JOINT RightToeBase
						{
							OFFSET 0.000000 -0.000002 14.183395
							CHANNELS 3 Xrotation Yrotation Zrotation
							End Site
							{
								OFFSET 0.006012 0.791745 6.868896
							}
						}
					}
				}
			}
		}
	}
	JOINT LeftUpLeg
	{
		OFFSET 5.535149 0.851454 -1.014999
		CHANNELS 3 Xrotation Yrotation Zrotation
		JOINT LeftUpLegRoll
		{
			OFFSET 0.000000 -0.000003 16.407600
			CHANNELS 3 Xrotation Yrotation Zrotation
			JOINT LeftLeg
			{
				OFFSET 0.000000 -0.000003 20.318100
				CHANNELS 3 Xrotation Yrotation Zrotation
				JOINT LeftLegRoll
				{
					OFFSET 0.000000 -0.000003 20.573097
					CHANNELS 3 Xrotation Yrotation Zrotation
					JOINT LeftFoot
					{
						OFFSET 0.000000 -0.000003 16.778305
						CHANNELS 3 Xrotation Yrotation Zrotation
						JOINT LeftToeBase
						{
							OFFSET 0.000000 -0.000002 14.183395
							CHANNELS 3 Xrotation Yrotation Zrotation
							End Site
							{
								OFFSET -0.026943 0.791745 6.868896
							}
						}
					}
				}
			}
		}
	}
}
MOTION
Frames: 12
Frame Time: 0.041667
52.023998 6.322934 92.463791 9.627315 0.190495 0.992507 -3.423167 0.433183 -0.092702 -2.843008 0.870734 -0.163805 -1.197857 0.868709 -0.174224 3.885873 4.063189 -1.497470 3.412895 -2.500572 -1.945383 -15.822326 -29.217674 -18.009061 -118.028100 -129.517831 -89.036031 0.000002 0.000009 0.000011 27.448599 -0.628521 -0.869473 0.000008 -0.000023 -3.000002 -5.000185 -7.998921 0.000129 -20.906220 6.657630 26.136754 -110.715099 151.060152 77.312892 0.000004 -0.000014 -0.000011 12.969444 -10.405976 0.991154 0.000002 -0.000015 2.999999 -5.000241 7.999592 -0.000073 -13.292772 -167.891118 -0.104928 -179.999991 0.000005 -1.115993 171.896013 3.529489 -0.597756 -0.000005 0.000004 -0.361814 65.682808 6.821651 2.509092 25.456953 -7.355614 -0.000010 -10.986275 165.951617 -1.975412 -0.000005 -0.000005 -1.123800 -7.431944 -2.994376 0.630445 -0.000004 -0.000001 0.214071 66.647688 -6.827589 -2.429066 25.456953 7.355622 -0.000006 
52.054100 6.339113 92.598183 9.650942 0.203357 1.052989 -3.408508 0.417911 -0.090515 -2.813722 0.840099 -0.160325 -1.168575 0.838119 -0.170378 3.427814 4.515970 -1.481875 3.716332 -2.809938 -1.983279 -15.935011 -29.304599 -18.173434 -117.291628 -129.199298 -88.542891 0.000002 0.000009 0.000009 26.957597 -0.669522 -0.869257 0.000009 -0.000020 -2.999997 -5.000183 -7.998922 0.000130 -20.935254 7.223098 26.163198 -110.543504 150.813978 77.344646 -0.000001 -0.000012 -0.000011 12.873209 -10.311764 0.993916 -0.000000 -0.000011 3.000000 -5.000242 7.999595 -0.000070 -13.332804 -168.045221 -0.129071 -179.999991 0.000005 -1.108999 171.838421 3.456716 -0.599555 -0.000004 0.000003 -0.352074 65.720196 6.821256 2.508778 25.456959 -7.355615 -0.000008 -11.007862 166.085407 -1.942444 -0.000005 -0.000004 -1.119180 -7.379704 -2.933482 0.632065 -0.000004 -0.000000 0.211475 66.647558 -6.827884 -2.428235 25.456955 7.355624 -0.000006 
52.041199 6.350554 92.734192 9.674105 0.219293 1.110848 -3.393252 0.401753 -0.088621 -2.783237 0.807708 -0.157465 -1.138102 0.805765 -0.167130 2.955729 4.966797 -1.460617 4.029443 -3.114816 -2.018402 -16.047651 -29.401085 -18.338059 -116.565279 -128.899166 -88.057422 0.000001 0.000009 0.000010 26.462318 -0.712583 -0.868767 0.000008 -0.000019 -2.999996 -5.000183 -7.998923 0.000129 -20.966461 7.797376 26.192307 -110.385453 150.571097 77.385504 0.000000 -0.000013 -0.000010 12.770690 -10.215644 0.996411 -0.000001 -0.000012 2.999999 -5.000240 7.999594 -0.000072 -13.378204 -168.201495 -0.151466 -179.999991 0.000005 -1.102005 171.764013 3.376894 -0.602505 -0.000005 0.000003 -0.342158 65.755406 6.821274 2.507784 25.456953 -7.355613 -0.000010 -11.023802 166.213009 -1.918030 -0.000005 -0.000004 -1.115610 -7.325847 -2.866448 0.633314 -0.000004 0.000000 0.209772 66.636917 -6.828317 -2.427586 25.456950 7.355624 -0.000006 
51.980804 6.258557 92.872299 9.697531 0.238093 1.166263 -3.377548 0.384875 -0.086932 -2.751841 0.773893 -0.155037 -1.106720 0.771981 -0.164298 2.469988 5.412318 -1.433457 4.351812 -3.412785 -2.050504 -16.160670 -29.508750 -18.503406 -115.852152 -128.616751 -87.581788 0.000002 0.000009 0.000007 25.965249 -0.757274 -0.868145 0.000009 -0.000023 -3.000005 -5.000180 -7.998924 0.000132 -20.999570 8.378859 26.223584 -110.239738 150.330674 77.434988 0.000000 -0.000012 -0.000010 12.663402 -10.117168 0.998632 0.000001 -0.000011 3.000000 -5.000238 7.999590 -0.000075 -13.429375 -168.361882 -0.172359 -179.999991 0.000005 -1.094997 171.675138 3.291027 -0.604703 -0.000005 0.000002 -0.332119 65.788601 6.821530 2.506270 25.456957 -7.355616 -0.000007 -11.037180 166.334613 -1.900639 -0.000005 -0.000004 -1.112870 -7.273615 -2.794030 0.634171 -0.000004 -0.000000 0.208712 66.618284 -6.828887 -2.427165 25.456955 7.355622 -0.000005 
51.950600 6.311182 92.997696 9.722001 0.259550 1.219392 -3.361519 0.367451 -0.085358 -2.719817 0.738985 -0.152859 -1.074699 0.737101 -0.161701 1.971006 5.849212 -1.400324 4.682990 -3.701446 -2.079386 -16.274039 -29.629149 -18.669407 -115.155145 -128.351822 -87.117963 0.000002 0.000009 0.000008 25.468292 -0.803193 -0.867541 0.000007 -0.000019 -3.000002 -5.000184 -7.998920 0.000133 -21.034177 8.965917 26.256475 -110.105115 150.091645 77.492751 -0.000001 -0.000013 -0.000011 12.552552 -10.015783 1.000514 -0.000003 -0.000012 2.999999 -5.000242 7.999591 -0.000074 -13.486570 -168.525396 -0.192616 -179.999991 0.000005 -1.088003 171.574147 3.200161 -0.608229 -0.000005 0.000002 -0.322011 65.819685 6.822094 2.504256 25.456955 -7.355614 -0.000009 -11.051179 166.450317 -1.888710 -0.000005 -0.000003 -1.110730 -7.226307 -2.717001 0.634641 -0.000004 -0.000001 0.208050 66.594105 -6.829463 -2.426987 25.456952 7.355626 -0.000006 
51.953201 6.328065 93.097198 9.748242 0.283457 1.270412 -3.345324 0.349646 -0.083817 -2.687443 0.703315 -0.150745 -1.042328 0.701460 -0.159160 1.459201 6.274121 -1.361272 5.022532 -3.978346 -2.104959 -16.388040 -29.764206 -18.836629 -114.477529 -128.103613 -86.668018 0.000002 0.000008 0.000008 24.973846 -0.849903 -0.867050 0.000005 -0.000021 -2.999998 -5.000184 -7.998922 0.000125 -21.069855 9.556954 26.290412 -109.980396 149.852930 77.558253 0.000002 -0.000010 -0.000011 12.439454 -9.911034 1.001975 0.000001 -0.000010 3.000005 -5.000244 7.999590 -0.000079 -13.549984 -168.692080 -0.212882 -179.999991 0.000005 -1.079998 171.463389 3.106264 -0.610981 -0.000006 0.000003 -0.311889 65.848945 6.822812 2.501886 25.456953 -7.355615 -0.000012 -11.068830 166.561253 -1.880941 -0.000005 -0.000005 -1.108969 -7.187166 -2.636092 0.634747 -0.000004 -0.000001 0.207534 66.566908 -6.830081 -2.426908 25.456953 7.355620 -0.000002 
51.917900 6.321322 93.220192 9.777004 0.309612 1.319499 -3.329085 0.331631 -0.082219 -2.655000 0.667216 -0.148514 -1.009889 0.665391 -0.156497 0.935006 6.683708 -1.316492 5.369996 -4.241072 -2.127183 -16.503118 -29.915327 -19.005440 -113.822241 -127.871509 -86.233884 0.000003 0.000008 0.000008 24.484007 -0.896987 -0.866737 0.000009 -0.000023 -2.999999 -5.000187 -7.998923 0.000126 -21.106143 10.150398 26.324808 -109.864433 149.613518 77.631124 -0.000001 -0.000013 -0.000011 12.325510 -9.802279 1.002955 -0.000001 -0.000012 3.000002 -5.000244 7.999590 -0.000073 -13.620020 -168.861893 -0.233835 -179.999991 0.000004 -1.071993 171.345172 3.008409 -0.614289 -0.000005 0.000002 -0.301807 65.876369 6.823689 2.499264 25.456957 -7.355616 -0.000008 -11.093259 166.668541 -1.876042 -0.000005 -0.000005 -1.107360 -7.159477 -2.552083 0.634531 -0.000004 -0.000002 0.206919 66.538993 -6.830711 -2.426978 25.456952 7.355623 -0.000002 
51.950802 6.399436 93.306496 9.809021 0.337814 1.366825 -3.312958 0.313574 -0.080480 -2.622769 0.631020 -0.145986 -0.977668 0.629228 -0.153535 0.398869 7.074641 -1.266325 5.724908 -4.487161 -2.146111 -16.619324 -30.084248 -19.175975 -113.192511 -127.654979 -85.817898 -0.000000 0.000007 0.000006 24.001071 -0.944005 -0.866690 0.000005 -0.000020 -2.999997 -5.000186 -7.998921 0.000123 -21.142769 10.744610 26.358970 -109.755929 149.372453 77.710928 -0.000001 -0.000013 -0.000010 12.211930 -9.689109 1.003387 0.000001 -0.000009 3.000000 -5.000244 7.999589 -0.000071 -13.696982 -169.034833 -0.256114 -179.999991 0.000006 -1.064999 171.221914 2.909573 -0.617908 -0.000005 0.000004 -0.291818 65.902139 6.824593 2.496654 25.456957 -7.355616 -0.000012 -11.127579 166.771322 -1.872355 -0.000005 -0.000005 -1.105690 -7.146511 -2.465719 0.634063 -0.000004 0.000000 0.205957 66.513120 -6.831192 -2.427288 25.456955 7.355622 -0.000002 
51.906601 6.392653 93.418694 9.845067 0.367867 1.412551 -3.297084 0.295646 -0.078514 -2.591029 0.595061 -0.142982 -0.945939 0.593307 -0.150101 -0.148724 7.443596 -1.211301 6.086785 -4.714194 -2.161858 -16.736952 -30.272601 -19.348686 -112.591495 -127.453297 -85.422198 0.000003 0.000009 0.000010 23.527140 -0.990531 -0.866924 0.000000 -0.000020 -3.000004 -5.000186 -7.998922 0.000128 -21.179104 11.337964 26.392428 -109.653804 149.128684 77.797391 -0.000001 -0.000012 -0.000011 12.100225 -9.570940 1.003198 -0.000000 -0.000012 3.000001 -5.000241 7.999588 -0.000075 -13.780961 -169.210943 -0.280340 -179.999991 0.000006 -1.056994 171.095897 2.808802 -0.622126 -0.000006 0.000003 -0.281976 65.926352 6.825500 2.494036 25.456960 -7.355615 -0.000009 -11.174850 166.869731 -1.868441 -0.000005 -0.000004 -1.103730 -7.151519 -2.377756 0.633436 -0.000004 -0.000000 0.204397 66.491509 -6.831577 -2.427614 25.456953 7.355624 -0.000006 
51.892200 6.418885 93.494598 9.885853 0.399573 1.456846 -3.281597 0.278014 -0.076237 -2.560083 0.559670 -0.139323 -0.914989 0.557963 -0.146019 -0.707256 7.787255 -1.152094 6.455142 -4.919706 -2.174655 -16.856564 -30.482069 -19.523988 -112.022028 -127.265590 -85.048539 0.000001 0.000007 0.000007 23.064398 -1.036123 -0.867467 0.000005 -0.000021 -3.000003 -5.000186 -7.998923 0.000128 -21.214615 11.928935 26.424426 -109.556658 148.881281 77.889845 -0.000001 -0.000012 -0.000009 11.991615 -9.447253 1.002289 0.000000 -0.000013 2.999999 -5.000240 7.999588 -0.000072 -13.872511 -169.389238 -0.307411 -179.999991 0.000005 -1.049003 170.969498 2.708066 -0.625771 -0.000005 0.000002 -0.272336 65.948994 6.826371 2.491612 25.456957 -7.355616 0.000000 -11.238149 166.965859 -1.863276 -0.000005 -0.000004 -1.101250 -7.177777 -2.288950 0.632767 -0.000005 -0.000000 0.201994 66.476817 -6.831703 -2.428155 25.456957 7.355622 -0.000006 
51.865002 6.430164 93.593689 9.932154 0.432740 1.499875 -3.266633 0.260849 -0.073561 -2.530186 0.525182 -0.134835 -0.885096 0.523531 -0.141118 -1.276171 8.102327 -1.089544 6.829468 -5.101270 -2.184780 -16.978295 -30.714394 -19.702394 -111.487259 -127.091324 -84.699106 0.000002 0.000009 0.000009 22.615151 -1.080351 -0.868309 0.000006 -0.000021 -3.000003 -5.000181 -7.998923 0.000129 -21.248826 12.515991 26.454315 -109.463501 148.629110 77.988022 -0.000001 -0.000014 -0.000011 11.887489 -9.317518 1.000577 -0.000003 -0.000013 2.999998 -5.000244 7.999588 -0.000075 -13.971818 -169.569691 -0.337976 -179.999991 0.000005 -1.040998 170.845011 2.608385 -0.629789 -0.000005 0.000003 -0.262951 65.970359 6.827133 2.489342 25.456957 -7.355616 0.000000 -11.320426 167.059870 -1.855481 -0.000005 -0.000004 -1.098040 -7.228545 -2.200051 0.632197 -0.000004 -0.000002 0.198499 66.471381 -6.831638 -2.428779 25.456953 7.355625 -0.000005 
51.906101 6.542824 93.650589 9.984705 0.467176 1.541804 -3.252348 0.244321 -0.070405 -2.501622 0.491930 -0.129342 -0.856543 0.490348 -0.135226 -1.854867 8.385537 -1.024665 7.209256 -5.256440 -2.192617 -17.102592 -30.970960 -19.884124 -110.990246 -126.929572 -84.376100 0.000002 0.000009 0.000008 22.181396 -1.122750 -0.869418 0.000008 -0.000019 -3.000000 -5.000181 -7.998924 0.000134 -21.281114 13.097331 26.481279 -109.373028 148.371147 78.091458 -0.000001 -0.000012 -0.000011 11.789064 -9.181201 0.997930 -0.000001 -0.000013 2.999999 -5.000245 7.999590 -0.000074 -14.079042 -169.753301 -0.372389 -179.999991 0.000005 -1.033006 170.724854 2.509793 -0.634264 -0.000005 0.000002 -0.253875 65.990419 6.827705 2.487413 25.456957 -7.355616 0.000003 -11.424939 167.151859 -1.843635 -0.000005 -0.000004 -1.093869 -7.307080 -2.111824 0.631880 -0.000004 -0.000001 0.193663 66.477842 -6.831251 -2.429397 25.456957 7.355622 -0.000005 
